# xmcd
#
# Track frame offsets:
#	150
#	12138
#	23482
#	37657
#	47799
#	61930
#	74604
#	74995
#	104229
#	119359
#	132502
#	150986
#	164134
#	180486
#	192365
#	204402
#	218785
#	232493
#	252545
#	270088
#	284148
#	296502
#	309080
#	321400
#	332826
#
# Disc length: 4643 seconds
#
# Revision: 1
# Processed by: cddbd v1.5.2PL0 Copyright (c) Steve Scherf et al.
# Submitted via: audiograbber 1.83.01
#
DISCID=88122119
DTITLE=Alan Jackson - The Best
DYEAR=1900
DGENRE=Country
TTITLE0=Merle And George
TTITLE1=Break Out The Good Stuff
TTITLE2=Ace Of Hearts
TTITLE3=Blue Blooded Woman
TTITLE4=Chasin' That Neon Rainbow
TTITLE5=Don't Rock The Jukebox
TTITLE6=Working Class Hero
TTITLE7=Summertime Blues
TTITLE8=Thank God For The Radio
TTITLE9=Let's Get Back To Me And You
TTITLE10=Chattahoochee
TTITLE11=Up To My Ears In Tears
TTITLE12=Mercury Blues
TTITLE13=Little Bitty
TTITLE14=Buicks To The Moon
TTITLE15=It's Time You Learned About Good-Bye
TTITLE16=Hurtin' Comes Easy
TTITLE17=Another Good Reason
TTITLE18=A Womans Love
TTITLE19=Pop A Top
TTITLE20=She Just Started Liking Chatin' Songs
TTITLE21=Margaritaville (With Jimmy Buffett)
TTITLE22=The Thrill Is Back
TTITLE23=Live Or Love
TTITLE24=A Love Like That
EXTD=
EXTT0=
EXTT1=
EXTT2=
EXTT3=
EXTT4=
EXTT5=
EXTT6=
EXTT7=
EXTT8=
EXTT9=
EXTT10=
EXTT11=
EXTT12=
EXTT13=
EXTT14=
EXTT15=
EXTT16=
EXTT17=
EXTT18=
EXTT19=
EXTT20=
EXTT21=With Jimmy Buffett
EXTT22=
EXTT23=
EXTT24=
PLAYORDER=
